<?xml version="1.0" standalone="no"?>
<!DOCTYPE svg PUBLIC "-//W3C//DTD SVG 1.1//EN"
"http://www.w3.org/Graphics/SVG/1.1/DTD/svg11.dtd">

<svg width="618" height="347" view_box="0 0 618 347"
xmlns="http://www.w3.org/2000/svg"
xmlns:link="http://www.w3.org/1999/xlink">\n\n<desc>Généré par Mocodo 2.3.7 le Wed, 19 Jan 2022 04:24:17</desc>

<rect id="frame" x="0" y="0" width="618" height="347" fill="#f7f7f7" stroke="none" stroke-width="0"/>

<!-- Association ADMINISTRER -->
<line x1="56" y1="211" x2="186" y2="211" stroke="#7fbc41" stroke-width="2"/>
<text x="108" y="228.0" fill="#c51b7d" font-family="Verdana" font-size="12">0,1</text>
<line x1="326" y1="211" x2="186" y2="211" stroke="#7fbc41" stroke-width="2"/>
<text x="243" y="228.0" fill="#c51b7d" font-family="Verdana" font-size="12">1,1</text>
<g id="association-ADMINISTRER">
	<path d="M 223 186 a 14 14 90 0 1 14 14 V 211 h -102 V 200 a 14 14 90 0 1 14 -14" fill="#b8e186" stroke="#b8e186" stroke-width="0"/>
	<path d="M 237 211.0 v 11 a 14 14 90 0 1 -14 14 H 149 a 14 14 90 0 1 -14 -14 V 211.0 H 102" fill="#e6f5d0" stroke="#e6f5d0" stroke-width="0"/>
	<rect x="135" y="186" width="102" height="50" fill="none" rx="14" stroke="#7fbc41" stroke-width="2"/>
	<line x1="135" y1="211" x2="237" y2="211" stroke="#7fbc41" stroke-width="1"/>
	<text x="142" y="203.7" fill="#000000" font-family="Verdana" font-size="12">ADMINISTRER</text>
</g>

<!-- Association PREFERER -->
<line x1="56" y1="211" x2="326" y2="34" stroke="#7fbc41" stroke-width="2"/>
<text x="108" y="192.154787914" fill="#c51b7d" font-family="Verdana" font-size="12">0,N</text>
<line x1="326" y1="211" x2="326" y2="34" stroke="#7fbc41" stroke-width="2"/>
<text x="331.0" y="76" fill="#c51b7d" font-family="Verdana" font-size="12">0,N</text>
<g id="association-PREFERER">
	<path d="M 351 9 a 14 14 90 0 1 14 14 V 34 h -78 V 23 a 14 14 90 0 1 14 -14" fill="#b8e186" stroke="#b8e186" stroke-width="0"/>
	<path d="M 365 34.0 v 11 a 14 14 90 0 1 -14 14 H 301 a 14 14 90 0 1 -14 -14 V 34.0 H 78" fill="#e6f5d0" stroke="#e6f5d0" stroke-width="0"/>
	<rect x="287" y="9" width="78" height="50" fill="none" rx="14" stroke="#7fbc41" stroke-width="2"/>
	<line x1="287" y1="34" x2="365" y2="34" stroke="#7fbc41" stroke-width="1"/>
	<text x="294" y="26.7" fill="#000000" font-family="Verdana" font-size="12">PREFERER</text>
</g>

<!-- Association PRESENTER -->
<line x1="326" y1="211" x2="458" y2="211" stroke="#7fbc41" stroke-width="2"/>
<text x="388" y="228.0" fill="#c51b7d" font-family="Verdana" font-size="12">0,N</text>
<line x1="571" y1="211" x2="458" y2="211" stroke="#7fbc41" stroke-width="2"/>
<text x="507" y="228.0" fill="#c51b7d" font-family="Verdana" font-size="12">1,1</text>
<g id="association-PRESENTER">
	<path d="M 487 186 a 14 14 90 0 1 14 14 V 211 h -86 V 200 a 14 14 90 0 1 14 -14" fill="#b8e186" stroke="#b8e186" stroke-width="0"/>
	<path d="M 501 211.0 v 11 a 14 14 90 0 1 -14 14 H 429 a 14 14 90 0 1 -14 -14 V 211.0 H 86" fill="#e6f5d0" stroke="#e6f5d0" stroke-width="0"/>
	<rect x="415" y="186" width="86" height="50" fill="none" rx="14" stroke="#7fbc41" stroke-width="2"/>
	<line x1="415" y1="211" x2="501" y2="211" stroke="#7fbc41" stroke-width="1"/>
	<text x="422" y="203.7" fill="#000000" font-family="Verdana" font-size="12">PRESENTER</text>
</g>

<!-- Entity PRODUIT -->
<g id="entity-PRODUIT">
	<g id="frame-PRODUIT">
		<rect x="533" y="135" width="76" height="25" fill="#f1b6da" stroke="#f1b6da" stroke-width="0"/>
		<rect x="533" y="160.0" width="76" height="127" fill="#fde0ef" stroke="#fde0ef" stroke-width="0"/>
		<rect x="533" y="135" width="76" height="152" fill="none" stroke="#de77ae" stroke-width="2"/>
		<line x1="533" y1="160" x2="609" y2="160" stroke="#de77ae" stroke-width="1"/>
	</g>
	<text x="542" y="152.7" fill="#000000" font-family="Verdana" font-size="12">PRODUIT</text>
	<text x="538" y="177.7" fill="#000000" font-family="Verdana" font-size="12">ref produit</text>
	<line x1="538" y1="180" x2="603" y2="180" stroke="#000000" stroke-width="1"/>
	<text x="538" y="194.7" fill="#000000" font-family="Verdana" font-size="12">nom</text>
	<text x="538" y="211.8" fill="#000000" font-family="Verdana" font-size="12">détail</text>
	<text x="538" y="228.8" fill="#000000" font-family="Verdana" font-size="12">prix</text>
	<text x="538" y="245.8" fill="#000000" font-family="Verdana" font-size="12">type prix</text>
	<text x="538" y="262.8" fill="#000000" font-family="Verdana" font-size="12">image</text>
	<text x="538" y="279.8" fill="#000000" font-family="Verdana" font-size="12">type</text>
</g>

<!-- Entity UTILISATEUR -->
<g id="entity-UTILISATEUR">
	<g id="frame-UTILISATEUR">
		<rect x="9" y="109" width="94" height="25" fill="#f1b6da" stroke="#f1b6da" stroke-width="0"/>
		<rect x="9" y="134.0" width="94" height="179" fill="#fde0ef" stroke="#fde0ef" stroke-width="0"/>
		<rect x="9" y="109" width="94" height="204" fill="none" stroke="#de77ae" stroke-width="2"/>
		<line x1="9" y1="134" x2="103" y2="134" stroke="#de77ae" stroke-width="1"/>
	</g>
	<text x="14" y="126.7" fill="#000000" font-family="Verdana" font-size="12">UTILISATEUR</text>
	<text x="14" y="151.7" fill="#000000" font-family="Verdana" font-size="12">ref utilisateur</text>
	<line x1="14" y1="154" x2="96" y2="154" stroke="#000000" stroke-width="1"/>
	<text x="14" y="168.7" fill="#000000" font-family="Verdana" font-size="12">nom</text>
	<text x="14" y="185.7" fill="#000000" font-family="Verdana" font-size="12">prénom</text>
	<text x="14" y="202.7" fill="#000000" font-family="Verdana" font-size="12">pseudo</text>
	<text x="14" y="219.8" fill="#000000" font-family="Verdana" font-size="12">adresse</text>
	<text x="14" y="236.8" fill="#000000" font-family="Verdana" font-size="12">code postal</text>
	<text x="14" y="253.8" fill="#000000" font-family="Verdana" font-size="12">ville</text>
	<text x="14" y="270.8" fill="#000000" font-family="Verdana" font-size="12">email</text>
	<text x="14" y="287.8" fill="#000000" font-family="Verdana" font-size="12">téléphone</text>
	<text x="14" y="304.8" fill="#000000" font-family="Verdana" font-size="12">role</text>
</g>

<!-- Entity PROFESSIONNEL -->
<g id="entity-PROFESSIONNEL">
	<g id="frame-PROFESSIONNEL">
		<rect x="269" y="84" width="114" height="25" fill="#f1b6da" stroke="#f1b6da" stroke-width="0"/>
		<rect x="269" y="109.0" width="114" height="229" fill="#fde0ef" stroke="#fde0ef" stroke-width="0"/>
		<rect x="269" y="84" width="114" height="254" fill="none" stroke="#de77ae" stroke-width="2"/>
		<line x1="269" y1="109" x2="383" y2="109" stroke="#de77ae" stroke-width="1"/>
	</g>
	<text x="274" y="101.7" fill="#000000" font-family="Verdana" font-size="12">PROFESSIONNEL</text>
	<text x="274" y="126.7" fill="#000000" font-family="Verdana" font-size="12">ref professionnel</text>
	<line x1="274" y1="129" x2="376" y2="129" stroke="#000000" stroke-width="1"/>
	<text x="274" y="143.7" fill="#000000" font-family="Verdana" font-size="12">nom société</text>
	<text x="274" y="160.7" fill="#000000" font-family="Verdana" font-size="12">SIRET</text>
	<text x="274" y="177.7" fill="#000000" font-family="Verdana" font-size="12">adresse</text>
	<text x="274" y="194.7" fill="#000000" font-family="Verdana" font-size="12">code postal</text>
	<text x="274" y="211.8" fill="#000000" font-family="Verdana" font-size="12">ville</text>
	<text x="274" y="228.8" fill="#000000" font-family="Verdana" font-size="12">longitude</text>
	<text x="274" y="245.8" fill="#000000" font-family="Verdana" font-size="12">latitude</text>
	<text x="274" y="262.8" fill="#000000" font-family="Verdana" font-size="12">email</text>
	<text x="274" y="279.8" fill="#000000" font-family="Verdana" font-size="12">téléphone</text>
	<text x="274" y="296.8" fill="#000000" font-family="Verdana" font-size="12">image</text>
	<text x="274" y="313.8" fill="#000000" font-family="Verdana" font-size="12">détail</text>
	<text x="274" y="330.8" fill="#000000" font-family="Verdana" font-size="12">communication</text>
</g>
</svg>